<svg width="24" height="24" viewBox="0 0 24 24" fill="none" xmlns="http://www.w3.org/2000/svg">
<path d="M19.1931 11.824L15.6551 9.75305V5.65305C15.6551 4.68368 15.27 3.75402 14.5846 3.06857C13.8991 2.38313 12.9695 1.99805 12.0001 1.99805C11.0307 1.99805 10.1011 2.38313 9.41562 3.06857C8.73018 3.75402 8.3451 4.68368 8.3451 5.65305V9.75305L4.8071 11.824C3.97169 12.3146 3.36495 13.1165 3.11993 14.0538C2.87492 14.9912 3.01164 15.9874 3.5001 16.824C3.99014 17.6601 4.79204 18.2673 5.72959 18.5124C6.66714 18.7575 7.66363 18.6203 8.5001 18.131L9.1591 17.745L8.5451 20H5.0001C4.73488 20 4.48053 20.1054 4.29299 20.2929C4.10546 20.4805 4.0001 20.7348 4.0001 21C4.0001 21.2653 4.10546 21.5196 4.29299 21.7072C4.48053 21.8947 4.73488 22 5.0001 22H19.0001C19.2653 22 19.5197 21.8947 19.7072 21.7072C19.8947 21.5196 20.0001 21.2653 20.0001 21C20.0001 20.7348 19.8947 20.4805 19.7072 20.2929C19.5197 20.1054 19.2653 20 19.0001 20H15.4551L14.8401 17.746C15.3224 18.1142 15.8788 18.3735 16.4709 18.5061C17.063 18.6387 17.6768 18.6414 18.2701 18.514C18.735 18.394 19.1715 18.1829 19.5543 17.893C19.9371 17.6031 20.2586 17.2401 20.5001 16.825C20.9889 15.9883 21.1258 14.9918 20.8807 14.0543C20.6357 13.1167 20.0288 12.3146 19.1931 11.824ZM7.4901 16.405C7.30284 16.5153 7.09563 16.5876 6.88038 16.6175C6.66513 16.6475 6.44607 16.6347 6.2358 16.5798C6.02552 16.5249 5.82816 16.4289 5.65506 16.2975C5.48196 16.1661 5.33652 16.0018 5.2271 15.814C5.00609 15.4355 4.9443 14.9847 5.05529 14.5606C5.16627 14.1365 5.44097 13.7738 5.8191 13.552L8.3531 12.068C8.3965 12.64 8.57041 13.1943 8.86146 13.6886C9.15252 14.1828 9.55299 14.6037 10.0321 14.919L7.4901 16.405ZM12.0001 13.5C11.6771 13.5014 11.3607 13.4081 11.0901 13.2317C10.8195 13.0553 10.6065 12.8035 10.4773 12.5074C10.3481 12.2113 10.3085 11.8839 10.3633 11.5656C10.4181 11.2472 10.5649 10.9519 10.7856 10.716C11.0063 10.4801 11.2912 10.314 11.6052 10.2382C11.9192 10.1624 12.2486 10.1803 12.5526 10.2895C12.8566 10.3987 13.122 10.5946 13.3159 10.8529C13.5099 11.1112 13.624 11.4206 13.6441 11.743C13.658 11.9679 13.6258 12.1932 13.5496 12.4052C13.4733 12.6171 13.3546 12.8113 13.2007 12.9758C13.0468 13.1403 12.8609 13.2716 12.6545 13.3618C12.448 13.4519 12.2254 13.499 12.0001 13.5ZM13.6551 8.60005C13.138 8.34995 12.5742 8.21129 12.0001 8.19305C11.4254 8.20584 10.8605 8.34442 10.3451 8.59905V5.65405C10.3451 5.21511 10.5195 4.79416 10.8298 4.48379C11.1402 4.17341 11.5612 3.99905 12.0001 3.99905C12.439 3.99905 12.86 4.17341 13.1704 4.48379C13.4807 4.79416 13.6551 5.21511 13.6551 5.65405V8.60005ZM18.7741 15.813C18.6646 16.0007 18.5191 16.1649 18.346 16.2963C18.1729 16.4276 17.9755 16.5235 17.7653 16.5784C17.5551 16.6333 17.336 16.6461 17.1208 16.6162C16.9056 16.5863 16.6984 16.5142 16.5111 16.404L13.9701 14.917C14.4495 14.6021 14.8502 14.1812 15.1413 13.6869C15.4324 13.1926 15.6061 12.6381 15.6491 12.066L18.1831 13.55C18.5613 13.772 18.836 14.135 18.9468 14.5593C19.0576 14.9836 18.9955 15.4345 18.7741 15.813ZM17.7521 8.28505C17.5703 7.6733 17.2911 7.09488 16.9251 6.57205C16.7734 6.35444 16.7144 6.08547 16.761 5.82433C16.8076 5.56319 16.956 5.33125 17.1736 5.17955C17.3912 5.02784 17.6602 4.9688 17.9213 5.0154C18.1825 5.062 18.4144 5.21044 18.5661 5.42805C19.053 6.12646 19.4245 6.89866 19.6661 7.71505C19.7046 7.84123 19.7178 7.97379 19.7048 8.10509C19.6919 8.23639 19.6531 8.36382 19.5907 8.48006C19.5283 8.5963 19.4435 8.69904 19.3412 8.78236C19.2389 8.86568 19.1211 8.92793 18.9947 8.96553C18.8682 9.00314 18.7356 9.01534 18.6044 9.00145C18.4732 8.98756 18.346 8.94784 18.2302 8.88458C18.1145 8.82133 18.0123 8.73579 17.9298 8.63289C17.8472 8.53 17.7858 8.41178 17.7491 8.28505H17.7521ZM6.8261 5.18005C7.04369 5.33163 7.19216 5.56344 7.23886 5.82448C7.28555 6.08553 7.22665 6.35443 7.0751 6.57205C6.70914 7.09488 6.42989 7.6733 6.2481 8.28505C6.21142 8.41178 6.15002 8.53 6.06745 8.63289C5.98487 8.73579 5.88275 8.82133 5.76697 8.88458C5.65119 8.94784 5.52403 8.98756 5.39284 9.00145C5.26164 9.01534 5.12898 9.00314 5.00252 8.96553C4.87606 8.92793 4.75829 8.86568 4.656 8.78236C4.5537 8.69904 4.46891 8.5963 4.4065 8.48006C4.34408 8.36382 4.30529 8.23639 4.29235 8.10509C4.27941 7.97379 4.29258 7.84123 4.3311 7.71505C4.57275 6.89866 4.94416 6.12646 5.4311 5.42805C5.50625 5.31997 5.602 5.22779 5.71286 5.1568C5.82371 5.08581 5.94749 5.0374 6.0771 5.01436C6.20671 4.99132 6.33959 4.9941 6.46812 5.02253C6.59665 5.05096 6.7183 5.10449 6.8261 5.18005Z" fill="black"/>
</svg>
